<svg width="16" height="16" viewBox="0 0 40 40" fill="none" xmlns="http://www.w3.org/2000/svg">
<path id="Subtract" fill-rule="evenodd" clip-rule="evenodd" d="M22.656 0.763613C20.9894 -0.0948684 19.0106 -0.0948705 17.344 0.763611L3.14399 8.07822C1.21331 9.07274 0 11.0625 0 13.2343V26.7656C0 28.9374 1.2133 30.9272 3.14399 31.9217L17.344 39.2363C19.0106 40.0948 20.9894 40.0948 22.656 39.2363L36.856 31.9217C38.7867 30.9272 40 28.9374 40 26.7656V13.2343C40 11.0625 38.7867 9.07275 36.856 8.07822L22.656 0.763613ZM22.4703 5.1251C21.2374 4.47384 19.7066 4.4665 18.4658 5.10588L6.57606 11.233C5.44355 11.8166 4.74595 12.8948 4.74595 14.0617V17.6497C4.74595 18.8498 5.48355 19.9533 6.66703 20.5238L19.299 26.6123C20.4851 27.184 21.966 26.7895 22.6067 25.7313C23.2475 24.6731 22.8054 23.3519 21.6193 22.7802L9.62773 17.0003V14.6902L20.444 9.11635L31.649 15.0349C32.809 15.6476 34.3061 15.3053 34.9929 14.2703C35.6796 13.2354 35.296 11.8997 34.1359 11.2869L22.4703 5.1251ZM21.85 14.1388C20.6799 13.5415 19.1887 13.9035 18.5192 14.9475C17.8497 15.9914 18.2555 17.3219 19.4256 17.9192L30.3757 23.5093V25.2767L19.5594 30.8505L8.35442 24.932C7.1944 24.3193 5.69729 24.6615 5.01053 25.6965C4.32377 26.7315 4.70743 28.0672 5.86744 28.6799L17.5331 34.8418C18.766 35.493 20.2968 35.5004 21.5375 34.861L33.4273 28.7339C34.5598 28.1503 35.2574 27.0721 35.2574 25.9052V22.8778C35.2574 21.7062 34.5542 20.6243 33.4144 20.0424L21.85 14.1388Z" fill="white"/>
</svg>
