<svg width="20" height="20" viewBox="0 0 20 20" fill="none" xmlns="http://www.w3.org/2000/svg">
  <g id="Group">
    <g id="Group_2">
      <path id="Path" d="M9.9987 5V6.25" stroke="#723CEB" stroke-linecap="round" stroke-linejoin="round"/>
      <path id="Path_2" d="M15.3033 4.6967C18.2322 7.62563 18.2322 12.3744 15.3033 15.3033C12.3743 18.2322 7.62562 18.2322 4.6967 15.3033C1.76777 12.3743 1.76777 7.62562 4.6967 4.6967C7.62563 1.76777 12.3744 1.76777 15.3033 4.6967" stroke="#723CEB" stroke-linecap="round" stroke-linejoin="round"/>
      <path id="Path_3" d="M9.9987 15V13.75" stroke="#723CEB" stroke-linecap="round" stroke-linejoin="round"/>
      <path id="Path_4" d="M7.5 11.8792V11.8792C7.5 12.915 8.33917 13.7542 9.375 13.7542H10.7442C11.7133 13.7542 12.5 12.9683 12.5 11.9983V11.9983C12.5 11.1933 11.9525 10.4917 11.1717 10.2958L8.82833 9.70833C8.0475 9.5125 7.5 8.81083 7.5 8.00583V8.00583C7.5 7.03583 8.28583 6.25 9.25583 6.25H10.625C11.6608 6.25 12.5 7.08917 12.5 8.125V8.125" stroke="#723CEB" stroke-linecap="round" stroke-linejoin="round"/>
    </g>
  </g>
</svg>

