<svg width="20" height="20" viewBox="0 0 20 20" fill="none" xmlns="http://www.w3.org/2000/svg">
<g id="Group">
<g id="Group_2">
<path id="Path" d="M9.99998 6.6665V7.49984" stroke="black" stroke-width="1.5" stroke-linecap="round" stroke-linejoin="round"/>
<path id="Path_2" d="M9.99998 13.3333V12.5" stroke="black" stroke-width="1.5" stroke-linecap="round" stroke-linejoin="round"/>
<path id="Path_3" d="M8.55498 11.9075C8.76998 12.26 9.13831 12.5025 9.58248 12.5025H10.4958C11.1416 12.5025 11.6658 11.9792 11.6658 11.3325C11.6658 10.7958 11.3008 10.3275 10.7808 10.1975L9.21915 9.80583C8.69831 9.675 8.33331 9.20667 8.33331 8.67C8.33331 8.02417 8.85665 7.5 9.50331 7.5H10.4166C10.8608 7.5 11.2291 7.74333 11.4441 8.095" stroke="black" stroke-width="1.5" stroke-linecap="round" stroke-linejoin="round"/>
<path id="Path_4" d="M17.3858 8.69754C18.105 12.7767 15.3808 16.6667 11.3025 17.3859C7.22331 18.105 3.33331 15.3817 2.61414 11.3025C1.89497 7.22337 4.61831 3.33337 8.69747 2.6142C12.7766 1.89504 16.6666 4.61837 17.3858 8.69754" stroke="black" stroke-width="1.5" stroke-linecap="round" stroke-linejoin="round"/>
</g>
</g>
</svg>
