<svg width="24" height="24" viewBox="0 0 24 24" fill="none" xmlns="http://www.w3.org/2000/svg">
<g id="Navigation, Maps/Earth, Home, World">
<g id="Group">
<g id="Group_2">
<path id="Path" d="M12 3C16.982 3 21 7.018 21 12C21 16.982 16.982 21 12 21" stroke="white" stroke-width="1.5" stroke-linecap="round" stroke-linejoin="round"/>
<path id="Path_2" d="M12 21C7.018 21 3 16.982 3 12C3 7.018 7.018 3 12 3" stroke="white" stroke-width="1.5" stroke-linecap="round" stroke-linejoin="round"/>
<path id="Path_3" d="M3 11.9998H7.172C8.734 11.9998 10 10.7338 10 9.1718V9.1718C10 8.4218 9.702 7.7018 9.172 7.1718L6.717 4.7168" stroke="white" stroke-width="1.5" stroke-linecap="round" stroke-linejoin="round"/>
<path id="Path_4" d="M18.292 18.438L16.515 15.773C16.193 15.29 15.652 15 15.072 15V15C14.415 15 13.815 14.629 13.521 14.041L13.388 13.775C13.144 13.287 13.144 12.712 13.388 12.224L14.521 9.958C14.814 9.371 15.415 9 16.072 9H20.48" stroke="white" stroke-width="1.5" stroke-linecap="round" stroke-linejoin="round"/>
</g>
</g>
</g>
</svg>
