<svg width="25" height="24" viewBox="0 0 25 24" fill="none" xmlns="http://www.w3.org/2000/svg">
<g id="Group">
<g id="Layer_2">
<path id="Path" d="M3.5 15H7.882C8.26093 15 8.60731 15.2142 8.77662 15.5532L9.22294 16.4468C9.39225 16.7858 9.73861 17 10.1175 17H14.8815C15.2602 17 15.6065 16.786 15.7759 16.4472L16.2231 15.5528C16.3925 15.214 16.7388 15 17.1175 15H21.5" stroke="white" stroke-width="1.5" stroke-linecap="round" stroke-linejoin="round"/>
<path id="Path_2" fill-rule="evenodd" clip-rule="evenodd" d="M18.5 3C20.1569 3 21.5 4.34315 21.5 6V18C21.5 19.6569 20.1569 21 18.5 21H6.5C4.84315 21 3.5 19.6569 3.5 18V6C3.5 4.34315 4.84315 3 6.5 3H18.5Z" stroke="white" stroke-width="1.5" stroke-linecap="round" stroke-linejoin="round"/>
<path id="Path_3" d="M12.5 12.4445V7.44452" stroke="white" stroke-width="1.5" stroke-linecap="round" stroke-linejoin="round"/>
<path id="Path_4" d="M10.5 10.445L12.5 12.445L14.5 10.445" stroke="white" stroke-width="1.5" stroke-linecap="round" stroke-linejoin="round"/>
</g>
</g>
</svg>
