<svg width="25" height="24" viewBox="0 0 25 24" fill="none" xmlns="http://www.w3.org/2000/svg">
<g id="Group">
<g id="Group_2">
<path id="Path" fill-rule="evenodd" clip-rule="evenodd" d="M6.5 19H4.5C3.948 19 3.5 18.552 3.5 18V15C3.5 14.448 3.948 14 4.5 14H6.5C7.052 14 7.5 14.448 7.5 15V18C7.5 18.552 7.052 19 6.5 19Z" fill="#283FFF" stroke="#283FFF" stroke-opacity="0.6" stroke-width="1.5" stroke-linecap="round" stroke-linejoin="round"/>
<path id="Path_2" fill-rule="evenodd" clip-rule="evenodd" d="M13.5 19H11.5C10.948 19 10.5 18.552 10.5 18V11C10.5 10.448 10.948 10 11.5 10H13.5C14.052 10 14.5 10.448 14.5 11V18C14.5 18.552 14.052 19 13.5 19Z" fill="#283FFF" stroke="#283FFF" stroke-opacity="0.6" stroke-width="1.5" stroke-linecap="round" stroke-linejoin="round"/>
<path id="Path_3" fill-rule="evenodd" clip-rule="evenodd" d="M20.5 19H18.5C17.948 19 17.5 18.552 17.5 18V6C17.5 5.448 17.948 5 18.5 5H20.5C21.052 5 21.5 5.448 21.5 6V18C21.5 18.552 21.052 19 20.5 19Z" stroke="white" stroke-width="1.5" stroke-linecap="round" stroke-linejoin="round"/>
</g>
</g>
</svg>
