<svg width="20" height="20" viewBox="0 0 20 20" fill="none" xmlns="http://www.w3.org/2000/svg">
  <g id="Group">
    <g id="Group_2">
      <path id="Path" d="M11.4744 8.52694C12.288 9.34053 12.288 10.6596 11.4744 11.4732C10.6608 12.2868 9.34175 12.2868 8.52816 11.4732C7.71457 10.6596 7.71457 9.34053 8.52816 8.52694C9.34176 7.71335 10.6608 7.71335 11.4744 8.52694" stroke="#723CEB" stroke-linecap="round" stroke-linejoin="round" />
      <path id="Path_2" fill-rule="evenodd" clip-rule="evenodd" d="M12.3753 3.43342L12.8611 3.59508C13.3061 3.74342 13.6069 4.16008 13.6069 4.62925V5.32675C13.6069 5.92008 14.0803 6.40425 14.6736 6.41675L15.3719 6.43175C15.7761 6.44008 16.1428 6.67258 16.3236 7.03425L16.5528 7.49258C16.7628 7.91258 16.6803 8.41925 16.3486 8.75092L15.8553 9.24425C15.4361 9.66342 15.4286 10.3409 15.8386 10.7693L16.3219 11.2743C16.6019 11.5668 16.6969 11.9893 16.5686 12.3734L16.4069 12.8593C16.2586 13.3043 15.8419 13.6051 15.3728 13.6051H14.6753C14.0819 13.6051 13.5978 14.0784 13.5853 14.6718L13.5703 15.3701C13.5619 15.7743 13.3294 16.1409 12.9678 16.3218L12.5094 16.5509C12.0894 16.7609 11.5828 16.6784 11.2511 16.3468L10.7578 15.8534C10.3386 15.4343 9.6611 15.4268 9.23277 15.8368L8.72777 16.3201C8.43527 16.6001 8.01277 16.6951 7.6286 16.5668L7.14277 16.4051C6.69777 16.2568 6.39694 15.8401 6.39694 15.3709V14.6734C6.39694 14.0801 5.9236 13.5959 5.33027 13.5834L4.63194 13.5684C4.22777 13.5601 3.8611 13.3276 3.68027 12.9659L3.4511 12.5076C3.2411 12.0876 3.3236 11.5809 3.65527 11.2493L4.1486 10.7559C4.56777 10.3368 4.57527 9.65925 4.16527 9.23092L3.68194 8.72592C3.4011 8.43258 3.3061 8.00925 3.43444 7.62592L3.5961 7.14008C3.74444 6.69508 4.1611 6.39425 4.63027 6.39425H5.32777C5.9211 6.39425 6.40527 5.92092 6.41777 5.32758L6.43277 4.62925C6.44277 4.22508 6.67444 3.85842 7.0361 3.67758L7.49444 3.44842C7.91444 3.23842 8.4211 3.32092 8.75277 3.65258L9.2461 4.14592C9.66527 4.56508 10.3428 4.57258 10.7711 4.16258L11.2761 3.67925C11.5686 3.40008 11.9919 3.30508 12.3753 3.43342V3.43342Z" stroke="#723CEB" stroke-linecap="round" stroke-linejoin="round" />
    </g>
  </g>
</svg>
