<svg width="53" height="54" viewBox="0 0 53 54" fill="none" xmlns="http://www.w3.org/2000/svg">
<g id="Content">
<path d="M0.0996094 23.0682C0.0996094 10.6594 10.1589 0.600098 22.5677 0.600098H30.6315C43.0403 0.600098 53.0996 10.6594 53.0996 23.0682V31.132C53.0996 43.5408 43.0403 53.6001 30.6315 53.6001H22.5677C10.1589 53.6001 0.0996094 43.5408 0.0996094 31.132V23.0682Z" fill="#17E800"/>
<path id="Tick" fill-rule="evenodd" clip-rule="evenodd" d="M37.8542 16.9198L22.0425 32.1794L17.8467 27.6964C17.0738 26.9677 15.8592 26.9235 14.9759 27.5419C14.1146 28.1823 13.8717 29.3085 14.4017 30.2139L19.3705 38.2964C19.8563 39.0473 20.6955 39.511 21.645 39.511C22.5505 39.511 23.4117 39.0473 23.8975 38.2964C24.6925 37.2585 39.8638 19.1723 39.8638 19.1723C41.8513 17.1406 39.4442 15.3519 37.8542 16.8977V16.9198Z" fill="white"/>
</g>
</svg>
