<svg width="24" height="24" viewBox="0 0 24 24" fill="none" xmlns="http://www.w3.org/2000/svg">
<g id="USA">
<g clip-path="url(#clip0_377_46645)">
<path id="rect2" d="M30 0H-6V24H30V0Z" fill="#B22234"/>
<g id="path4">
<path d="M-6 2.76904H30.0351H-6ZM30.0351 6.46135H-6H30.0351ZM-6 10.1537H30.0351H-6ZM30.0351 13.846H-6H30.0351ZM-6 17.5383H30.0351H-6ZM30.0351 21.2306H-6H30.0351Z" fill="black"/>
<path d="M-6 2.76904H30.0351M30.0351 6.46135H-6M-6 10.1537H30.0351M30.0351 13.846H-6M-6 17.5383H30.0351M30.0351 21.2306H-6" stroke="white" stroke-width="2.73525"/>
</g>
<path id="rect6" d="M12.24 0H-6V13.0256H12.24V0Z" fill="#3C3B6E"/>
<g id="g31">
<g id="s18">
<g id="use22">
<g id="use19">
<path id="s" d="M0.0811335 1.84668L0.51519 3.18257L-0.621185 2.35694H0.783452L-0.352923 3.18257L0.0811335 1.84668Z" fill="white"/>
<path id="use9" d="M0.0813166 4.43115L0.515374 5.76704L-0.621002 4.94142H0.783635L-0.35274 5.76704L0.0813166 4.43115Z" fill="white"/>
<path id="use11" d="M0.0813166 7.01562L0.515374 8.35151L-0.621002 7.52589H0.783635L-0.35274 8.35151L0.0813166 7.01562Z" fill="white"/>
<path id="use13" d="M0.0813166 9.60059L0.515374 10.9365L-0.621002 10.1109H0.783635L-0.35274 10.9365L0.0813166 9.60059Z" fill="white"/>
</g>
</g>
</g>
<g id="use25">
<g id="s9">
<g id="s5">
<g id="s4">
<path id="s_2" d="M1.59987 0.554688L2.03393 1.89058L0.897552 1.06495H2.30219L1.16581 1.89058L1.59987 0.554688Z" fill="white"/>
<path id="use9_2" d="M1.59987 3.13916L2.03393 4.47505L0.897552 3.64942H2.30219L1.16581 4.47505L1.59987 3.13916Z" fill="white"/>
<path id="use11_2" d="M1.59987 5.72363L2.03393 7.05952L0.897552 6.2339H2.30219L1.16581 7.05952L1.59987 5.72363Z" fill="white"/>
<path id="use13_2" d="M1.59987 8.30859L2.03393 9.64448L0.897552 8.81886H2.30219L1.16581 9.64448L1.59987 8.30859Z" fill="white"/>
</g>
<path id="use16" d="M1.59987 10.8931L2.03393 12.229L0.897552 11.4033H2.30219L1.16581 12.229L1.59987 10.8931Z" fill="white"/>
</g>
<g id="use19_2">
<path id="s_3" d="M3.1198 1.84668L3.55386 3.18257L2.41748 2.35694H3.82212L2.68574 3.18257L3.1198 1.84668Z" fill="white"/>
<path id="use9_3" d="M3.1198 4.43115L3.55386 5.76704L2.41748 4.94142H3.82212L2.68574 5.76704L3.1198 4.43115Z" fill="white"/>
<path id="use11_3" d="M3.1198 7.01562L3.55386 8.35151L2.41748 7.52589H3.82212L2.68574 8.35151L3.1198 7.01562Z" fill="white"/>
<path id="use13_3" d="M3.1198 9.60059L3.55386 10.9365L2.41748 10.1109H3.82212L2.68574 10.9365L3.1198 9.60059Z" fill="white"/>
</g>
</g>
<g id="use22_2">
<g id="s5_2">
<g id="s4_2">
<path id="s_4" d="M4.6407 0.554199L5.07476 1.89009L3.93839 1.06446H5.34302L4.20665 1.89009L4.6407 0.554199Z" fill="white"/>
<path id="use9_4" d="M4.64052 3.13867L5.07458 4.47456L3.9382 3.64894H5.34284L4.20646 4.47456L4.64052 3.13867Z" fill="white"/>
<path id="use11_4" d="M4.64052 5.72363L5.07458 7.05952L3.9382 6.2339H5.34284L4.20646 7.05952L4.64052 5.72363Z" fill="white"/>
<path id="use13_4" d="M4.64052 8.30811L5.07458 9.644L3.9382 8.81837H5.34284L4.20646 9.644L4.64052 8.30811Z" fill="white"/>
</g>
<path id="use16_2" d="M4.6407 10.8926L5.07476 12.2285L3.93839 11.4028H5.34302L4.20665 12.2285L4.6407 10.8926Z" fill="white"/>
</g>
<g id="use19_3">
<path id="s_5" d="M6.15962 1.84668L6.59368 3.18257L5.45731 2.35694H6.86194L5.72557 3.18257L6.15962 1.84668Z" fill="white"/>
<path id="use9_5" d="M6.15962 4.43115L6.59368 5.76704L5.45731 4.94142H6.86194L5.72557 5.76704L6.15962 4.43115Z" fill="white"/>
<path id="use11_5" d="M6.15962 7.01611L6.59368 8.352L5.45731 7.52638H6.86194L5.72557 8.352L6.15962 7.01611Z" fill="white"/>
<path id="use13_5" d="M6.15962 9.60059L6.59368 10.9365L5.45731 10.1109H6.86194L5.72557 10.9365L6.15962 9.60059Z" fill="white"/>
</g>
</g>
</g>
<g id="use27">
<g id="s5_3">
<g id="s4_3">
<path id="s_6" d="M7.67955 0.554199L8.11361 1.89009L6.97723 1.06446H8.38187L7.2455 1.89009L7.67955 0.554199Z" fill="white"/>
<path id="use9_6" d="M7.67974 3.13916L8.11379 4.47505L6.97742 3.64942H8.38205L7.24568 4.47505L7.67974 3.13916Z" fill="white"/>
<path id="use11_6" d="M7.67974 5.72363L8.11379 7.05952L6.97742 6.2339H8.38205L7.24568 7.05952L7.67974 5.72363Z" fill="white"/>
<path id="use13_6" d="M7.67974 8.30811L8.11379 9.644L6.97742 8.81837H8.38205L7.24568 9.644L7.67974 8.30811Z" fill="white"/>
</g>
<path id="use16_3" d="M7.67974 10.8926L8.11379 12.2285L6.97742 11.4028H8.38205L7.24568 12.2285L7.67974 10.8926Z" fill="white"/>
</g>
<g id="use19_4">
<path id="s_7" d="M9.20064 1.84668L9.6347 3.18257L8.49832 2.35694H9.90296L8.76658 3.18257L9.20064 1.84668Z" fill="white"/>
<path id="use9_7" d="M9.20064 4.43115L9.6347 5.76704L8.49832 4.94142H9.90296L8.76658 5.76704L9.20064 4.43115Z" fill="white"/>
<path id="use11_7" d="M9.20064 7.01611L9.6347 8.352L8.49832 7.52638H9.90296L8.76658 8.352L9.20064 7.01611Z" fill="white"/>
<path id="use13_7" d="M9.20064 9.60059L9.6347 10.9365L8.49832 10.1109H9.90296L8.76658 10.9365L9.20064 9.60059Z" fill="white"/>
</g>
</g>
<g id="use29">
<g id="s4_4">
<path id="s_8" d="M10.7206 0.554199L11.1546 1.89009L10.0182 1.06446H11.4229L10.2865 1.89009L10.7206 0.554199Z" fill="white"/>
<path id="use9_8" d="M10.7206 3.13867L11.1546 4.47456L10.0182 3.64894H11.4229L10.2865 4.47456L10.7206 3.13867Z" fill="white"/>
<path id="use11_8" d="M10.7206 5.72314L11.1546 7.05903L10.0182 6.23341H11.4229L10.2865 7.05903L10.7206 5.72314Z" fill="white"/>
<path id="use13_8" d="M10.7206 8.30811L11.1546 9.644L10.0182 8.81837H11.4229L10.2865 9.644L10.7206 8.30811Z" fill="white"/>
</g>
<path id="use16_4" d="M10.7206 10.8926L11.1546 12.2285L10.0182 11.4028H11.4229L10.2865 12.2285L10.7206 10.8926Z" fill="white"/>
</g>
</g>
</g>
</g>
<defs>
<clipPath id="clip0_377_46645">
<rect width="24" height="24" rx="12" fill="white"/>
</clipPath>
</defs>
</svg>
