<svg width="33" height="33" viewBox="0 0 33 33" fill="none" xmlns="http://www.w3.org/2000/svg">
<g id="Frame 828">
<path id="Subtract" fill-rule="evenodd" clip-rule="evenodd" d="M19.2057 1.17016C17.5124 0.2771 15.4876 0.2771 13.7943 1.17016L3.59423 6.54982C1.6911 7.55357 0.5 9.52838 0.5 11.68V21.5609C0.5 23.7125 1.6911 25.6873 3.59423 26.691L13.7943 32.0707C15.4876 32.9637 17.5124 32.9637 19.2057 32.0707L29.4058 26.691C31.3089 25.6873 32.5 23.7125 32.5 21.5609V11.68C32.5 9.52838 31.3089 7.55357 29.4058 6.54982L19.2057 1.17016ZM18.4763 4.43613C17.4899 3.90268 16.2653 3.89666 15.2727 4.42038L5.76085 9.43912L6.68907 10.9072L5.76084 9.43912C4.85484 9.91716 4.29676 10.8004 4.29676 11.7561V14.6951C4.29676 15.6782 4.88684 16.582 5.83363 17.0493L15.9392 22.0365C16.8881 22.5047 18.0728 22.1817 18.5854 21.3149C19.098 20.4481 18.7443 19.3658 17.7955 18.8976L8.20218 14.1632V12.271L16.8552 7.70539L25.8192 12.5533C26.7472 13.0552 27.9449 12.7748 28.4943 11.9271C29.0437 11.0793 28.7368 9.98522 27.8088 9.48333L18.4763 4.43613ZM17.98 11.8193C17.0439 11.3301 15.8509 11.6266 15.3153 12.4817C14.7797 13.3368 15.1044 14.4266 16.0404 14.9159L24.8005 19.4947V20.9424L16.1475 25.508L7.18354 20.6601C6.25552 20.1582 5.05784 20.4386 4.50843 21.2863C3.95902 22.1341 4.26594 23.2282 5.19396 23.7301L14.5264 28.7773C15.5128 29.3107 16.7374 29.3168 17.73 28.793L27.2419 23.7743C28.1479 23.2963 28.7059 22.4131 28.7059 21.4573V18.9775C28.7059 18.0178 28.1434 17.1316 27.2315 16.655L17.98 11.8193Z" fill="white"/>
</g>
</svg>
